<svg id="my-svg" width="100%" xmlns="http://www.w3.org/2000/svg" xmlns:xlink="http://www.w3.org/1999/xlink" class="flowchart" style="max-width: 1398.68px; background-color: transparent;" viewBox="0 0 1398.67578125 1104" role="graphics-document document" aria-roledescription="flowchart-v2"><style>#my-svg{font-family:"trebuchet ms",verdana,arial,sans-serif;font-size:16px;fill:#333;}@keyframes edge-animation-frame{from{stroke-dashoffset:0;}}@keyframes dash{to{stroke-dashoffset:0;}}#my-svg .edge-animation-slow{stroke-dasharray:9,5!important;stroke-dashoffset:900;animation:dash 50s linear infinite;stroke-linecap:round;}#my-svg .edge-animation-fast{stroke-dasharray:9,5!important;stroke-dashoffset:900;animation:dash 20s linear infinite;stroke-linecap:round;}#my-svg .error-icon{fill:#552222;}#my-svg .error-text{fill:#552222;stroke:#552222;}#my-svg .edge-thickness-normal{stroke-width:1px;}#my-svg .edge-thickness-thick{stroke-width:3.5px;}#my-svg .edge-pattern-solid{stroke-dasharray:0;}#my-svg .edge-thickness-invisible{stroke-width:0;fill:none;}#my-svg .edge-pattern-dashed{stroke-dasharray:3;}#my-svg .edge-pattern-dotted{stroke-dasharray:2;}#my-svg .marker{fill:#333333;stroke:#333333;}#my-svg .marker.cross{stroke:#333333;}#my-svg svg{font-family:"trebuchet ms",verdana,arial,sans-serif;font-size:16px;}#my-svg p{margin:0;}#my-svg .label{font-family:"trebuchet ms",verdana,arial,sans-serif;color:#333;}#my-svg .cluster-label text{fill:#333;}#my-svg .cluster-label span{color:#333;}#my-svg .cluster-label span p{background-color:transparent;}#my-svg .label text,#my-svg span{fill:#333;color:#333;}#my-svg .node rect,#my-svg .node circle,#my-svg .node ellipse,#my-svg .node polygon,#my-svg .node path{fill:#ECECFF;stroke:#9370DB;stroke-width:1px;}#my-svg .rough-node .label text,#my-svg .node .label text,#my-svg .image-shape .label,#my-svg .icon-shape .label{text-anchor:middle;}#my-svg .node .katex path{fill:#000;stroke:#000;stroke-width:1px;}#my-svg .rough-node .label,#my-svg .node .label,#my-svg .image-shape .label,#my-svg .icon-shape .label{text-align:center;}#my-svg .node.clickable{cursor:pointer;}#my-svg .root .anchor path{fill:#333333!important;stroke-width:0;stroke:#333333;}#my-svg .arrowheadPath{fill:#333333;}#my-svg .edgePath .path{stroke:#333333;stroke-width:2.0px;}#my-svg .flowchart-link{stroke:#333333;fill:none;}#my-svg .edgeLabel{background-color:rgba(232,232,232, 0.8);text-align:center;}#my-svg .edgeLabel p{background-color:rgba(232,232,232, 0.8);}#my-svg .edgeLabel rect{opacity:0.5;background-color:rgba(232,232,232, 0.8);fill:rgba(232,232,232, 0.8);}#my-svg .labelBkg{background-color:rgba(232, 232, 232, 0.5);}#my-svg .cluster rect{fill:#ffffde;stroke:#aaaa33;stroke-width:1px;}#my-svg .cluster text{fill:#333;}#my-svg .cluster span{color:#333;}#my-svg div.mermaidTooltip{position:absolute;text-align:center;max-width:200px;padding:2px;font-family:"trebuchet ms",verdana,arial,sans-serif;font-size:12px;background:hsl(80, 100%, 96.2745098039%);border:1px solid #aaaa33;border-radius:2px;pointer-events:none;z-index:100;}#my-svg .flowchartTitleText{text-anchor:middle;font-size:18px;fill:#333;}#my-svg rect.text{fill:none;stroke-width:0;}#my-svg .icon-shape,#my-svg .image-shape{background-color:rgba(232,232,232, 0.8);text-align:center;}#my-svg .icon-shape p,#my-svg .image-shape p{background-color:rgba(232,232,232, 0.8);padding:2px;}#my-svg .icon-shape .label rect,#my-svg .image-shape .label rect{opacity:0.5;background-color:rgba(232,232,232, 0.8);fill:rgba(232,232,232, 0.8);}#my-svg .label-icon{display:inline-block;height:1em;overflow:visible;vertical-align:-0.125em;}#my-svg .node .label-icon path{fill:currentColor;stroke:revert;stroke-width:revert;}#my-svg :root{--mermaid-font-family:"trebuchet ms",verdana,arial,sans-serif;}</style><g><marker id="my-svg_flowchart-v2-pointEnd" class="marker flowchart-v2" viewBox="0 0 10 10" refX="5" refY="5" markerUnits="userSpaceOnUse" markerWidth="8" markerHeight="8" orient="auto"><path d="M 0 0 L 10 5 L 0 10 z" class="arrowMarkerPath" style="stroke-width: 1; stroke-dasharray: 1, 0;"/></marker><marker id="my-svg_flowchart-v2-pointStart" class="marker flowchart-v2" viewBox="0 0 10 10" refX="4.5" refY="5" markerUnits="userSpaceOnUse" markerWidth="8" markerHeight="8" orient="auto"><path d="M 0 5 L 10 10 L 10 0 z" class="arrowMarkerPath" style="stroke-width: 1; stroke-dasharray: 1, 0;"/></marker><marker id="my-svg_flowchart-v2-circleEnd" class="marker flowchart-v2" viewBox="0 0 10 10" refX="11" refY="5" markerUnits="userSpaceOnUse" markerWidth="11" markerHeight="11" orient="auto"><circle cx="5" cy="5" r="5" class="arrowMarkerPath" style="stroke-width: 1; stroke-dasharray: 1, 0;"/></marker><marker id="my-svg_flowchart-v2-circleStart" class="marker flowchart-v2" viewBox="0 0 10 10" refX="-1" refY="5" markerUnits="userSpaceOnUse" markerWidth="11" markerHeight="11" orient="auto"><circle cx="5" cy="5" r="5" class="arrowMarkerPath" style="stroke-width: 1; stroke-dasharray: 1, 0;"/></marker><marker id="my-svg_flowchart-v2-crossEnd" class="marker cross flowchart-v2" viewBox="0 0 11 11" refX="12" refY="5.2" markerUnits="userSpaceOnUse" markerWidth="11" markerHeight="11" orient="auto"><path d="M 1,1 l 9,9 M 10,1 l -9,9" class="arrowMarkerPath" style="stroke-width: 2; stroke-dasharray: 1, 0;"/></marker><marker id="my-svg_flowchart-v2-crossStart" class="marker cross flowchart-v2" viewBox="0 0 11 11" refX="-1" refY="5.2" markerUnits="userSpaceOnUse" markerWidth="11" markerHeight="11" orient="auto"><path d="M 1,1 l 9,9 M 10,1 l -9,9" class="arrowMarkerPath" style="stroke-width: 2; stroke-dasharray: 1, 0;"/></marker><g class="root"><g class="clusters"><g class="cluster" id="購入経路" data-look="classic"><rect style="" x="562.18359375" y="8" width="448.40625" height="128"/><g class="cluster-label" transform="translate(754.38671875, 8)"><foreignObject width="64" height="24"><div xmlns="http://www.w3.org/1999/xhtml" style="display: table-cell; white-space: nowrap; line-height: 1.5;"><span class="nodeLabel"><p>購入経路</p></span></div></foreignObject></g></g><g class="cluster" id="代替製品" data-look="classic"><rect style="" x="815.83984375" y="614" width="437.59375" height="104"/><g class="cluster-label" transform="translate(1002.63671875, 614)"><foreignObject width="64" height="24"><div xmlns="http://www.w3.org/1999/xhtml" style="display: table-cell; white-space: nowrap; line-height: 1.5;"><span class="nodeLabel"><p>代替製品</p></span></div></foreignObject></g></g><g class="cluster" id="sigrok互換性" data-look="classic"><rect style="" x="8" y="792" width="1197.77734375" height="304"/><g class="cluster-label" transform="translate(561.912109375, 792)"><foreignObject width="89.953125" height="24"><div xmlns="http://www.w3.org/1999/xhtml" style="display: table-cell; white-space: nowrap; line-height: 1.5;"><span class="nodeLabel"><p>sigrok互換性</p></span></div></foreignObject></g></g><g class="cluster" id="FPGAバリアント" data-look="classic"><rect style="" x="125.3203125" y="412" width="1033.71484375" height="128"/><g class="cluster-label" transform="translate(583.388671875, 412)"><foreignObject width="117.578125" height="24"><div xmlns="http://www.w3.org/1999/xhtml" style="display: table-cell; white-space: nowrap; line-height: 1.5;"><span class="nodeLabel"><p>FPGAバリアント</p></span></div></foreignObject></g></g><g class="cluster" id="製品ライン" data-look="classic"><rect style="" x="62.8203125" y="210" width="1249.53515625" height="104"/><g class="cluster-label" transform="translate(647.587890625, 210)"><foreignObject width="80" height="24"><div xmlns="http://www.w3.org/1999/xhtml" style="display: table-cell; white-space: nowrap; line-height: 1.5;"><span class="nodeLabel"><p>製品ライン</p></span></div></foreignObject></g></g></g><g class="edgePaths"><path d="M704.406,272.513L630.28,279.427C556.154,286.342,407.901,300.171,333.775,315.252C259.648,330.333,259.648,346.667,259.648,363C259.648,379.333,259.648,395.667,265.066,407.618C270.484,419.57,281.319,427.139,286.737,430.924L292.154,434.709" id="L_P_X_0" class="edge-thickness-normal edge-pattern-solid edge-thickness-normal edge-pattern-solid flowchart-link" style=";" data-edge="true" data-et="edge" data-id="L_P_X_0" data-points="W3sieCI6NzA0LjQwNjI1LCJ5IjoyNzIuNTEyOTU2MzQ1MDM1NH0seyJ4IjoyNTkuNjQ4NDM3NSwieSI6MzE0fSx7IngiOjI1OS42NDg0Mzc1LCJ5IjozNjN9LHsieCI6MjU5LjY0ODQzNzUsInkiOjQxMn0seyJ4IjoyOTUuNDMzMzQ5NjA5Mzc1LCJ5Ijo0Mzd9XQ==" marker-end="url(#my-svg_flowchart-v2-pointEnd)"/><path d="M786.248,289L781.485,293.167C776.722,297.333,767.197,305.667,762.434,318C757.672,330.333,757.672,346.667,757.672,363C757.672,379.333,757.672,395.667,757.672,407.333C757.672,419,757.672,426,757.672,429.5L757.672,433" id="L_P_PG_0" class="edge-thickness-normal edge-pattern-solid edge-thickness-normal edge-pattern-solid flowchart-link" style=";" data-edge="true" data-et="edge" data-id="L_P_PG_0" data-points="W3sieCI6Nzg2LjI0NzU5NjE1Mzg0NjIsInkiOjI4OX0seyJ4Ijo3NTcuNjcxODc1LCJ5IjozMTR9LHsieCI6NzU3LjY3MTg3NSwieSI6MzYzfSx7IngiOjc1Ny42NzE4NzUsInkiOjQxMn0seyJ4Ijo3NTcuNjcxODc1LCJ5Ijo0Mzd9XQ==" marker-end="url(#my-svg_flowchart-v2-pointEnd)"/><path d="M308.895,281.131L331.223,286.609C353.552,292.087,398.21,303.044,420.538,316.688C442.867,330.333,442.867,346.667,442.867,363C442.867,379.333,442.867,395.667,437.45,407.618C432.032,419.57,421.197,427.139,415.779,430.924L410.361,434.709" id="L_B_X_0" class="edge-thickness-normal edge-pattern-solid edge-thickness-normal edge-pattern-solid flowchart-link" style=";" data-edge="true" data-et="edge" data-id="L_B_X_0" data-points="W3sieCI6MzA4Ljg5NDUzMTI1LCJ5IjoyODEuMTMwOTA5MTU3OTI3N30seyJ4Ijo0NDIuODY3MTg3NSwieSI6MzE0fSx7IngiOjQ0Mi44NjcxODc1LCJ5IjozNjN9LHsieCI6NDQyLjg2NzE4NzUsInkiOjQxMn0seyJ4Ijo0MDcuMDgyMjc1MzkwNjI1LCJ5Ijo0Mzd9XQ==" marker-end="url(#my-svg_flowchart-v2-pointEnd)"/><path d="M372.534,515L374.807,519.167C377.08,523.333,381.626,531.667,383.899,542C386.172,552.333,386.172,564.667,386.172,577C386.172,589.333,386.172,601.667,386.172,616.5C386.172,631.333,386.172,648.667,386.172,666C386.172,683.333,386.172,700.667,386.172,715.5C386.172,730.333,386.172,742.667,386.172,755C386.172,767.333,386.172,779.667,434.359,797.248C482.546,814.829,578.921,837.658,627.108,849.072L675.295,860.487" id="L_X_LIB_0" class="edge-thickness-normal edge-pattern-solid edge-thickness-normal edge-pattern-solid flowchart-link" style=";" data-edge="true" data-et="edge" data-id="L_X_LIB_0" data-points="W3sieCI6MzcyLjUzMzU2OTMzNTkzNzUsInkiOjUxNX0seyJ4IjozODYuMTcxODc1LCJ5Ijo1NDB9LHsieCI6Mzg2LjE3MTg3NSwieSI6NTc3fSx7IngiOjM4Ni4xNzE4NzUsInkiOjYxNH0seyJ4IjozODYuMTcxODc1LCJ5Ijo2NjZ9LHsieCI6Mzg2LjE3MTg3NSwieSI6NzE4fSx7IngiOjM4Ni4xNzE4NzUsInkiOjc1NX0seyJ4IjozODYuMTcxODc1LCJ5Ijo3OTJ9LHsieCI6Njc5LjE4NzUsInkiOjg2MS40MDg4MTU2MTIzODIyfV0=" marker-end="url(#my-svg_flowchart-v2-pointEnd)"/><path d="M724.954,515L721.458,519.167C717.963,523.333,710.972,531.667,707.476,542C703.98,552.333,703.98,564.667,703.98,577C703.98,589.333,703.98,601.667,703.98,616.5C703.98,631.333,703.98,648.667,703.98,666C703.98,683.333,703.98,700.667,703.98,715.5C703.98,730.333,703.98,742.667,703.98,755C703.98,767.333,703.98,779.667,709.836,795.431C715.692,811.195,727.404,830.39,733.259,839.988L739.115,849.585" id="L_PG_LIB_0" class="edge-thickness-normal edge-pattern-solid edge-thickness-normal edge-pattern-solid flowchart-link" style=";" data-edge="true" data-et="edge" data-id="L_PG_LIB_0" data-points="W3sieCI6NzI0Ljk1MzY3NDMxNjQwNjIsInkiOjUxNX0seyJ4Ijo3MDMuOTgwNDY4NzUsInkiOjU0MH0seyJ4Ijo3MDMuOTgwNDY4NzUsInkiOjU3N30seyJ4Ijo3MDMuOTgwNDY4NzUsInkiOjYxNH0seyJ4Ijo3MDMuOTgwNDY4NzUsInkiOjY2Nn0seyJ4Ijo3MDMuOTgwNDY4NzUsInkiOjcxOH0seyJ4Ijo3MDMuOTgwNDY4NzUsInkiOjc1NX0seyJ4Ijo3MDMuOTgwNDY4NzUsInkiOjc5Mn0seyJ4Ijo3NDEuMTk4Mzc1MzU1MTEzNiwieSI6ODUzfV0=" marker-end="url(#my-svg_flowchart-v2-pointEnd)"/><path d="M649.25,487.868L569.875,496.557C490.5,505.245,331.75,522.623,252.375,537.478C173,552.333,173,564.667,173,577C173,589.333,173,601.667,173,616.5C173,631.333,173,648.667,173,666C173,683.333,173,700.667,173,715.5C173,730.333,173,742.667,173,755C173,767.333,173,779.667,173,789.333C173,799,173,806,173,809.5L173,813" id="L_PG_FW_0" class="edge-thickness-normal edge-pattern-solid edge-thickness-normal edge-pattern-solid flowchart-link" style=";" data-edge="true" data-et="edge" data-id="L_PG_FW_0" data-points="W3sieCI6NjQ5LjI1LCJ5Ijo0ODcuODY4MTk1MzAxODUyfSx7IngiOjE3MywieSI6NTQwfSx7IngiOjE3MywieSI6NTc3fSx7IngiOjE3MywieSI6NjE0fSx7IngiOjE3MywieSI6NjY2fSx7IngiOjE3MywieSI6NzE4fSx7IngiOjE3MywieSI6NzU1fSx7IngiOjE3MywieSI6NzkyfSx7IngiOjE3MywieSI6ODE3fV0=" marker-end="url(#my-svg_flowchart-v2-pointEnd)"/><path d="M173,943L173,949.167C173,955.333,173,967.667,237.166,982.861C301.332,998.055,429.664,1016.11,493.83,1025.137L557.996,1034.165" id="L_FW_PV_0" class="edge-thickness-normal edge-pattern-solid edge-thickness-normal edge-pattern-solid flowchart-link" style=";" data-edge="true" data-et="edge" data-id="L_FW_PV_0" data-points="W3sieCI6MTczLCJ5Ijo5NDN9LHsieCI6MTczLCJ5Ijo5ODB9LHsieCI6NTYxLjk1NzAzMTI1LCJ5IjoxMDM0LjcyMjE4NDUzNDc5ODh9XQ==" marker-end="url(#my-svg_flowchart-v2-pointEnd)"/><path d="M757.672,907L757.672,919.167C757.672,931.333,757.672,955.667,745.766,973.705C733.86,991.744,710.048,1003.487,698.142,1009.359L686.236,1015.231" id="L_LIB_PV_0" class="edge-thickness-normal edge-pattern-solid edge-thickness-normal edge-pattern-solid flowchart-link" style=";" data-edge="true" data-et="edge" data-id="L_LIB_PV_0" data-points="W3sieCI6NzU3LjY3MTg3NSwieSI6OTA3fSx7IngiOjc1Ny42NzE4NzUsInkiOjk4MH0seyJ4Ijo2ODIuNjQ4ODY0NzQ2MDkzOCwieSI6MTAxN31d" marker-end="url(#my-svg_flowchart-v2-pointEnd)"/><path d="M929.813,274.332L990.236,280.943C1050.66,287.554,1171.508,300.777,1231.932,315.555C1292.355,330.333,1292.355,346.667,1292.355,363C1292.355,379.333,1292.355,395.667,1292.355,409.333C1292.355,423,1292.355,434,1292.355,439.5L1292.355,445" id="L_P_DSV_0" class="edge-thickness-normal edge-pattern-solid edge-thickness-normal edge-pattern-solid flowchart-link" style=";" data-edge="true" data-et="edge" data-id="L_P_DSV_0" data-points="W3sieCI6OTI5LjgxMjUsInkiOjI3NC4zMzE2MzczOTE4MTE4fSx7IngiOjEyOTIuMzU1NDY4NzUsInkiOjMxNH0seyJ4IjoxMjkyLjM1NTQ2ODc1LCJ5IjozNjN9LHsieCI6MTI5Mi4zNTU0Njg3NSwieSI6NDEyfSx7IngiOjEyOTIuMzU1NDY4NzUsInkiOjQ0OX1d" marker-end="url(#my-svg_flowchart-v2-pointEnd)"/><path d="M681.84,111L681.84,115.167C681.84,119.333,681.84,127.667,681.84,138C681.84,148.333,681.84,160.667,681.84,173C681.84,185.333,681.84,197.667,692.056,207.761C702.273,217.855,722.706,225.71,732.923,229.637L743.14,233.565" id="L_ALI_P_0" class="edge-thickness-normal edge-pattern-solid edge-thickness-normal edge-pattern-solid flowchart-link" style=";" data-edge="true" data-et="edge" data-id="L_ALI_P_0" data-points="W3sieCI6NjgxLjgzOTg0Mzc1LCJ5IjoxMTF9LHsieCI6NjgxLjgzOTg0Mzc1LCJ5IjoxMzZ9LHsieCI6NjgxLjgzOTg0Mzc1LCJ5IjoxNzN9LHsieCI6NjgxLjgzOTg0Mzc1LCJ5IjoyMTB9LHsieCI6NzQ2Ljg3MzI3MjIzNTU3NjksInkiOjIzNX1d" marker-end="url(#my-svg_flowchart-v2-pointEnd)"/><path d="M896.043,111L896.043,115.167C896.043,119.333,896.043,127.667,896.043,138C896.043,148.333,896.043,160.667,896.043,173C896.043,185.333,896.043,197.667,890.275,207.633C884.507,217.6,872.971,225.2,867.203,229L861.434,232.799" id="L_AMZ_P_0" class="edge-thickness-normal edge-pattern-solid edge-thickness-normal edge-pattern-solid flowchart-link" style=";" data-edge="true" data-et="edge" data-id="L_AMZ_P_0" data-points="W3sieCI6ODk2LjA0Mjk2ODc1LCJ5IjoxMTF9LHsieCI6ODk2LjA0Mjk2ODc1LCJ5IjoxMzZ9LHsieCI6ODk2LjA0Mjk2ODc1LCJ5IjoxNzN9LHsieCI6ODk2LjA0Mjk2ODc1LCJ5IjoyMTB9LHsieCI6ODU4LjA5NDEyNTYwMDk2MTUsInkiOjIzNX1d" marker-end="url(#my-svg_flowchart-v2-pointEnd)"/><path d="M930.238,693L930.238,697.167C930.238,701.333,930.238,709.667,930.238,720C930.238,730.333,930.238,742.667,930.238,755C930.238,767.333,930.238,779.667,910.896,795.697C891.553,811.728,852.867,831.455,833.525,841.319L814.182,851.183" id="L_K1_LIB_0" class="edge-thickness-normal edge-pattern-solid edge-thickness-normal edge-pattern-solid flowchart-link" style=";" data-edge="true" data-et="edge" data-id="L_K1_LIB_0" data-points="W3sieCI6OTMwLjIzODI4MTI1LCJ5Ijo2OTN9LHsieCI6OTMwLjIzODI4MTI1LCJ5Ijo3MTh9LHsieCI6OTMwLjIzODI4MTI1LCJ5Ijo3NTV9LHsieCI6OTMwLjIzODI4MTI1LCJ5Ijo3OTJ9LHsieCI6ODEwLjYxODM4NjAwODUyMjcsInkiOjg1M31d" marker-end="url(#my-svg_flowchart-v2-pointEnd)"/><path d="M1139.035,693L1139.035,697.167C1139.035,701.333,1139.035,709.667,1139.035,720C1139.035,730.333,1139.035,742.667,1139.035,755C1139.035,767.333,1139.035,779.667,1089.205,797.332C1039.375,814.997,939.714,837.994,889.884,849.492L840.054,860.99" id="L_K2_LIB_0" class="edge-thickness-normal edge-pattern-solid edge-thickness-normal edge-pattern-solid flowchart-link" style=";" data-edge="true" data-et="edge" data-id="L_K2_LIB_0" data-points="W3sieCI6MTEzOS4wMzUxNTYyNSwieSI6NjkzfSx7IngiOjExMzkuMDM1MTU2MjUsInkiOjcxOH0seyJ4IjoxMTM5LjAzNTE1NjI1LCJ5Ijo3NTV9LHsieCI6MTEzOS4wMzUxNTYyNSwieSI6NzkyfSx7IngiOjgzNi4xNTYyNSwieSI6ODYxLjg4OTY0MzQ0NjEwNzJ9XQ==" marker-end="url(#my-svg_flowchart-v2-pointEnd)"/><path d="M862.83,515L874.064,519.167C885.299,523.333,907.769,531.667,919.003,542C930.238,552.333,930.238,564.667,930.238,577C930.238,589.333,930.238,601.667,930.238,611.333C930.238,621,930.238,628,930.238,631.5L930.238,635" id="L_PG_K1_0" class="edge-thickness-normal edge-pattern-dotted edge-thickness-normal edge-pattern-solid flowchart-link" style=";" data-edge="true" data-et="edge" data-id="L_PG_K1_0" data-points="W3sieCI6ODYyLjgyOTUyODgwODU5MzgsInkiOjUxNX0seyJ4Ijo5MzAuMjM4MjgxMjUsInkiOjU0MH0seyJ4Ijo5MzAuMjM4MjgxMjUsInkiOjU3N30seyJ4Ijo5MzAuMjM4MjgxMjUsInkiOjYxNH0seyJ4Ijo5MzAuMjM4MjgxMjUsInkiOjYzOX1d" marker-end="url(#my-svg_flowchart-v2-pointEnd)"/><path d="M866.094,494.195L911.584,501.829C957.074,509.463,1048.055,524.732,1093.545,538.533C1139.035,552.333,1139.035,564.667,1139.035,577C1139.035,589.333,1139.035,601.667,1139.035,611.333C1139.035,621,1139.035,628,1139.035,631.5L1139.035,635" id="L_PG_K2_0" class="edge-thickness-normal edge-pattern-dotted edge-thickness-normal edge-pattern-solid flowchart-link" style=";" data-edge="true" data-et="edge" data-id="L_PG_K2_0" data-points="W3sieCI6ODY2LjA5Mzc1LCJ5Ijo0OTQuMTk1MjQ5MzYyMzgyMDd9LHsieCI6MTEzOS4wMzUxNTYyNSwieSI6NTQwfSx7IngiOjExMzkuMDM1MTU2MjUsInkiOjU3N30seyJ4IjoxMTM5LjAzNTE1NjI1LCJ5Ijo2MTR9LHsieCI6MTEzOS4wMzUxNTYyNSwieSI6NjM5fV0=" marker-end="url(#my-svg_flowchart-v2-pointEnd)"/></g><g class="edgeLabels"><g class="edgeLabel" transform="translate(259.6484375, 363)"><g class="label" data-id="L_P_X_0" transform="translate(-63.21875, -12)"><foreignObject width="126.4375" height="24"><div xmlns="http://www.w3.org/1999/xhtml" class="labelBkg" style="display: table-cell; white-space: nowrap; line-height: 1.5; max-width: 200px; text-align: center;"><span class="edgeLabel"><p>搭載 32MB SDRAM</p></span></div></foreignObject></g></g><g class="edgeLabel" transform="translate(757.671875, 363)"><g class="label" data-id="L_P_PG_0" transform="translate(-63.21875, -12)"><foreignObject width="126.4375" height="24"><div xmlns="http://www.w3.org/1999/xhtml" class="labelBkg" style="display: table-cell; white-space: nowrap; line-height: 1.5; max-width: 200px; text-align: center;"><span class="edgeLabel"><p>搭載 32MB SDRAM</p></span></div></foreignObject></g></g><g class="edgeLabel" transform="translate(442.8671875, 363)"><g class="label" data-id="L_B_X_0" transform="translate(-100, -24)"><foreignObject width="200" height="48"><div xmlns="http://www.w3.org/1999/xhtml" class="labelBkg" style="display: table; white-space: break-spaces; line-height: 1.5; max-width: 200px; text-align: center; width: 200px;"><span class="edgeLabel"><p>ストリーミングのみ USB依存</p></span></div></foreignObject></g></g><g class="edgeLabel" transform="translate(386.171875, 666)"><g class="label" data-id="L_X_LIB_0" transform="translate(-99.859375, -12)"><foreignObject width="199.71875" height="24"><div xmlns="http://www.w3.org/1999/xhtml" class="labelBkg" style="display: table-cell; white-space: nowrap; line-height: 1.5; max-width: 200px; text-align: center;"><span class="edgeLabel"><p>VID-PID 2a0e-0020 正式対応</p></span></div></foreignObject></g></g><g class="edgeLabel" transform="translate(703.98046875, 666)"><g class="label" data-id="L_PG_LIB_0" transform="translate(-91.859375, -12)"><foreignObject width="183.71875" height="24"><div xmlns="http://www.w3.org/1999/xhtml" class="labelBkg" style="display: table-cell; white-space: nowrap; line-height: 1.5; max-width: 200px; text-align: center;"><span class="edgeLabel"><p>VID-PID 2a0e-0030 非対応</p></span></div></foreignObject></g></g><g class="edgeLabel" transform="translate(173, 666)"><g class="label" data-id="L_PG_FW_0" transform="translate(-48, -12)"><foreignObject width="96" height="24"><div xmlns="http://www.w3.org/1999/xhtml" class="labelBkg" style="display: table-cell; white-space: nowrap; line-height: 1.5; max-width: 200px; text-align: center;"><span class="edgeLabel"><p>部分動作可能</p></span></div></foreignObject></g></g><g class="edgeLabel" transform="translate(173, 980)"><g class="label" data-id="L_FW_PV_0" transform="translate(-56, -12)"><foreignObject width="112" height="24"><div xmlns="http://www.w3.org/1999/xhtml" class="labelBkg" style="display: table-cell; white-space: nowrap; line-height: 1.5; max-width: 200px; text-align: center;"><span class="edgeLabel"><p>手動配置で利用</p></span></div></foreignObject></g></g><g class="edgeLabel" transform="translate(757.671875, 980)"><g class="label" data-id="L_LIB_PV_0" transform="translate(-32, -12)"><foreignObject width="64" height="24"><div xmlns="http://www.w3.org/1999/xhtml" class="labelBkg" style="display: table-cell; white-space: nowrap; line-height: 1.5; max-width: 200px; text-align: center;"><span class="edgeLabel"><p>対応済み</p></span></div></foreignObject></g></g><g class="edgeLabel" transform="translate(1292.35546875, 363)"><g class="label" data-id="L_P_DSV_0" transform="translate(-64, -12)"><foreignObject width="128" height="24"><div xmlns="http://www.w3.org/1999/xhtml" class="labelBkg" style="display: table-cell; white-space: nowrap; line-height: 1.5; max-width: 200px; text-align: center;"><span class="edgeLabel"><p>全バリアント対応</p></span></div></foreignObject></g></g><g class="edgeLabel" transform="translate(681.83984375, 173)"><g class="label" data-id="L_ALI_P_0" transform="translate(-60.96875, -12)"><foreignObject width="121.9375" height="24"><div xmlns="http://www.w3.org/1999/xhtml" class="labelBkg" style="display: table-cell; white-space: nowrap; line-height: 1.5; max-width: 200px; text-align: center;"><span class="edgeLabel"><p>主にPango版流通</p></span></div></foreignObject></g></g><g class="edgeLabel" transform="translate(896.04296875, 173)"><g class="label" data-id="L_AMZ_P_0" transform="translate(-45.4921875, -12)"><foreignObject width="90.984375" height="24"><div xmlns="http://www.w3.org/1999/xhtml" class="labelBkg" style="display: table-cell; white-space: nowrap; line-height: 1.5; max-width: 200px; text-align: center;"><span class="edgeLabel"><p>U2BASIC名義</p></span></div></foreignObject></g></g><g class="edgeLabel" transform="translate(930.23828125, 755)"><g class="label" data-id="L_K1_LIB_0" transform="translate(-52.9765625, -12)"><foreignObject width="105.953125" height="24"><div xmlns="http://www.w3.org/1999/xhtml" class="labelBkg" style="display: table-cell; white-space: nowrap; line-height: 1.5; max-width: 200px; text-align: center;"><span class="edgeLabel"><p>sigrok公式対応</p></span></div></foreignObject></g></g><g class="edgeLabel" transform="translate(1139.03515625, 755)"><g class="label" data-id="L_K2_LIB_0" transform="translate(-52.9765625, -12)"><foreignObject width="105.953125" height="24"><div xmlns="http://www.w3.org/1999/xhtml" class="labelBkg" style="display: table-cell; white-space: nowrap; line-height: 1.5; max-width: 200px; text-align: center;"><span class="edgeLabel"><p>sigrok公式対応</p></span></div></foreignObject></g></g><g class="edgeLabel" transform="translate(930.23828125, 577)"><g class="label" data-id="L_PG_K1_0" transform="translate(-84.9765625, -12)"><foreignObject width="169.953125" height="24"><div xmlns="http://www.w3.org/1999/xhtml" class="labelBkg" style="display: table-cell; white-space: nowrap; line-height: 1.5; max-width: 200px; text-align: center;"><span class="edgeLabel"><p>sigrok重視なら代替推奨</p></span></div></foreignObject></g></g><g class="edgeLabel" transform="translate(1139.03515625, 577)"><g class="label" data-id="L_PG_K2_0" transform="translate(-84.9765625, -12)"><foreignObject width="169.953125" height="24"><div xmlns="http://www.w3.org/1999/xhtml" class="labelBkg" style="display: table-cell; white-space: nowrap; line-height: 1.5; max-width: 200px; text-align: center;"><span class="edgeLabel"><p>sigrok重視なら代替推奨</p></span></div></foreignObject></g></g></g><g class="nodes"><g class="node default" id="flowchart-B-0" transform="translate(230.91796875, 262)"><rect class="basic label-container" style="" x="-77.9765625" y="-27" width="155.953125" height="54"/><g class="label" style="" transform="translate(-47.9765625, -12)"><rect/><foreignObject width="95.953125" height="24"><div xmlns="http://www.w3.org/1999/xhtml" style="display: table-cell; white-space: nowrap; line-height: 1.5; max-width: 200px; text-align: center;"><span class="nodeLabel"><p>DSLogic Basic</p></span></div></foreignObject></g></g><g class="node default" id="flowchart-P-1" transform="translate(817.109375, 262)"><rect class="basic label-container" style="" x="-112.703125" y="-27" width="225.40625" height="54"/><g class="label" style="" transform="translate(-82.703125, -12)"><rect/><foreignObject width="165.40625" height="24"><div xmlns="http://www.w3.org/1999/xhtml" style="display: table-cell; white-space: nowrap; line-height: 1.5; max-width: 200px; text-align: center;"><span class="nodeLabel"><p>DSLogic Plus / U2BASIC</p></span></div></foreignObject></g></g><g class="node default" id="flowchart-X-2" transform="translate(351.2578125, 476)"><rect class="basic label-container" style="" x="-94.6640625" y="-39" width="189.328125" height="78"/><g class="label" style="" transform="translate(-64.6640625, -24)"><rect/><foreignObject width="129.328125" height="48"><div xmlns="http://www.w3.org/1999/xhtml" style="display: table-cell; white-space: nowrap; line-height: 1.5; max-width: 200px; text-align: center;"><span class="nodeLabel"><p>Xilinx Spartan-6版<br />旧モデル</p></span></div></foreignObject></g></g><g class="node default" id="flowchart-PG-3" transform="translate(757.671875, 476)"><rect class="basic label-container" style="" x="-108.421875" y="-39" width="216.84375" height="78"/><g class="label" style="" transform="translate(-78.421875, -24)"><rect/><foreignObject width="156.84375" height="48"><div xmlns="http://www.w3.org/1999/xhtml" style="display: table-cell; white-space: nowrap; line-height: 1.5; max-width: 200px; text-align: center;"><span class="nodeLabel"><p>PangoMicro PGL12G版<br />2023年以降</p></span></div></foreignObject></g></g><g class="node default" id="flowchart-LIB-4" transform="translate(757.671875, 880)"><rect class="basic label-container" style="" x="-78.484375" y="-27" width="156.96875" height="54"/><g class="label" style="" transform="translate(-48.484375, -12)"><rect/><foreignObject width="96.96875" height="24"><div xmlns="http://www.w3.org/1999/xhtml" style="display: table-cell; white-space: nowrap; line-height: 1.5; max-width: 200px; text-align: center;"><span class="nodeLabel"><p>libsigrok 公式</p></span></div></foreignObject></g></g><g class="node default" id="flowchart-FW-5" transform="translate(173, 880)"><rect class="basic label-container" style="" x="-130" y="-63" width="260" height="126"/><g class="label" style="" transform="translate(-100, -48)"><rect/><foreignObject width="200" height="96"><div xmlns="http://www.w3.org/1999/xhtml" style="display: table; white-space: break-spaces; line-height: 1.5; max-width: 200px; text-align: center; width: 200px;"><span class="nodeLabel"><p>コミュニティ版ファームウェア<br />cantclosevi/sigrok-firmware</p></span></div></foreignObject></g></g><g class="node default" id="flowchart-PV-6" transform="translate(627.90234375, 1044)"><rect class="basic label-container" style="" x="-65.9453125" y="-27" width="131.890625" height="54"/><g class="label" style="" transform="translate(-35.9453125, -12)"><rect/><foreignObject width="71.890625" height="24"><div xmlns="http://www.w3.org/1999/xhtml" style="display: table-cell; white-space: nowrap; line-height: 1.5; max-width: 200px; text-align: center;"><span class="nodeLabel"><p>PulseView</p></span></div></foreignObject></g></g><g class="node default" id="flowchart-K1-7" transform="translate(930.23828125, 666)"><rect class="basic label-container" style="" x="-79.3984375" y="-27" width="158.796875" height="54"/><g class="label" style="" transform="translate(-49.3984375, -12)"><rect/><foreignObject width="98.796875" height="24"><div xmlns="http://www.w3.org/1999/xhtml" style="display: table-cell; white-space: nowrap; line-height: 1.5; max-width: 200px; text-align: center;"><span class="nodeLabel"><p>Kingst LA2016</p></span></div></foreignObject></g></g><g class="node default" id="flowchart-K2-8" transform="translate(1139.03515625, 666)"><rect class="basic label-container" style="" x="-79.3984375" y="-27" width="158.796875" height="54"/><g class="label" style="" transform="translate(-49.3984375, -12)"><rect/><foreignObject width="98.796875" height="24"><div xmlns="http://www.w3.org/1999/xhtml" style="display: table-cell; white-space: nowrap; line-height: 1.5; max-width: 200px; text-align: center;"><span class="nodeLabel"><p>Kingst LA5016</p></span></div></foreignObject></g></g><g class="node default" id="flowchart-ALI-9" transform="translate(681.83984375, 72)"><rect class="basic label-container" style="" x="-84.65625" y="-39" width="169.3125" height="78"/><g class="label" style="" transform="translate(-54.65625, -24)"><rect/><foreignObject width="109.3125" height="48"><div xmlns="http://www.w3.org/1999/xhtml" style="display: table-cell; white-space: nowrap; line-height: 1.5; max-width: 200px; text-align: center;"><span class="nodeLabel"><p>AliExpress<br />約1.3〜1.6万円</p></span></div></foreignObject></g></g><g class="node default" id="flowchart-AMZ-10" transform="translate(896.04296875, 72)"><rect class="basic label-container" style="" x="-79.546875" y="-39" width="159.09375" height="78"/><g class="label" style="" transform="translate(-49.546875, -24)"><rect/><foreignObject width="99.09375" height="48"><div xmlns="http://www.w3.org/1999/xhtml" style="display: table-cell; white-space: nowrap; line-height: 1.5; max-width: 200px; text-align: center;"><span class="nodeLabel"><p>Amazon.co.jp<br />約3万円前後</p></span></div></foreignObject></g></g><g class="node default" id="flowchart-DSV-11" transform="translate(1292.35546875, 476)"><rect class="basic label-container" style="" x="-98.3203125" y="-27" width="196.640625" height="54"/><g class="label" style="" transform="translate(-68.3203125, -12)"><rect/><foreignObject width="136.640625" height="24"><div xmlns="http://www.w3.org/1999/xhtml" style="display: table-cell; white-space: nowrap; line-height: 1.5; max-width: 200px; text-align: center;"><span class="nodeLabel"><p>DSView 公式ソフト</p></span></div></foreignObject></g></g></g></g></g></svg>